<?xml version="1.0" encoding="utf-8"?>
<!-- Generator: Adobe Illustrator 23.0.6, SVG Export Plug-In . SVG Version: 6.00 Build 0)  -->
<svg version="1.1" id="Layer_1" xmlns="http://www.w3.org/2000/svg" xmlns:xlink="http://www.w3.org/1999/xlink" x="0px" y="0px"
	 viewBox="0 0 48 48" style="enable-background:new 0 0 48 48;" xml:space="preserve">
<style type="text/css">
	.st0{fill-rule:evenodd;clip-rule:evenodd;fill:#3B5998;}
	.st1{fill-rule:evenodd;clip-rule:evenodd;fill:#FFFFFF;}
</style>
<path class="st0" d="M0,10v28c0,5.5,4.5,10,10,10h28c5.5,0,10-4.5,10-10V10c0-5.5-4.5-10-10-10H10C4.5,0,0,4.5,0,10z"/>
<g>
	<path class="st1" d="M31.1,16H16.9c-0.5,0-0.9,0.4-0.9,0.9v0v14.2c0,0.5,0.4,0.9,0.9,0.9h7.7v-6.2h-2.1v-2.4h2.1v-1.8
		c0-2.1,1.3-3.2,3.1-3.2c0.6,0,1.3,0,1.9,0.1v2.2h-1.3c-1,0-1.2,0.5-1.2,1.2v1.5h2.4l-0.3,2.4H27V32h4.1c0.5,0,0.9-0.4,0.9-0.9v0
		V16.9C32,16.4,31.6,16,31.1,16L31.1,16L31.1,16z"/>
</g>
</svg>
