<?xml version="1.0" encoding="utf-8"?>
<!-- Generator: Adobe Illustrator 23.0.6, SVG Export Plug-In . SVG Version: 6.00 Build 0)  -->
<svg version="1.1" id="Layer_1" xmlns="http://www.w3.org/2000/svg" xmlns:xlink="http://www.w3.org/1999/xlink" x="0px" y="0px"
	 viewBox="0 0 48 48" style="enable-background:new 0 0 48 48;" xml:space="preserve">
<style type="text/css">
	.st0{fill:url(#SVGID_1_);}
	.st1{fill-rule:evenodd;clip-rule:evenodd;fill:#FFFFFF;}
</style>
<g>
	<linearGradient id="SVGID_1_" gradientUnits="userSpaceOnUse" x1="24" y1="48" x2="24" y2="-9.094947e-13">
		<stop  offset="0" style="stop-color:#25CF43"/>
		<stop  offset="1" style="stop-color:#61FD7D"/>
	</linearGradient>
	<path class="st0" d="M0,10v28c0,5.5,4.5,10,10,10h28c5.5,0,10-4.5,10-10V10c0-5.5-4.5-10-10-10H10C4.5,0,0,4.5,0,10z"/>
	<path class="st1" d="M31.1,17c-1.9-1.9-4.4-2.9-7-2.9c-5.5,0-9.9,4.5-9.9,9.9c0,1.8,0.5,3.5,1.3,5L14,34.1l5.3-1.4
		c1.5,0.8,3.1,1.2,4.8,1.2h0c5.5,0,9.9-4.5,9.9-9.9C34,21.3,32.9,18.8,31.1,17L31.1,17z M24,32.2L24,32.2c-1.5,0-2.9-0.4-4.2-1.1
		l-0.3-0.2l-3.1,0.8l0.8-3L17,28.4c-0.8-1.3-1.3-2.8-1.3-4.4c0-4.6,3.7-8.3,8.3-8.3c2.2,0,4.3,0.9,5.8,2.4c1.6,1.5,2.4,3.7,2.4,5.8
		C32.3,28.5,28.6,32.2,24,32.2L24,32.2z M28.6,26.1c-0.2-0.1-1.5-0.7-1.7-0.8c-0.2-0.1-0.4-0.1-0.6,0.1c-0.2,0.2-0.6,0.8-0.8,1
		c-0.1,0.2-0.3,0.2-0.5,0.1c-0.2-0.1-1-0.4-2-1.2c-0.7-0.7-1.2-1.5-1.4-1.7c-0.1-0.2,0-0.4,0.1-0.5c0.1-0.1,0.2-0.3,0.4-0.4
		c0.1-0.1,0.2-0.2,0.2-0.4c0.1-0.2,0-0.3,0-0.4c-0.1-0.1-0.6-1.3-0.8-1.8c-0.2-0.5-0.4-0.4-0.6-0.4c-0.1,0-0.3,0-0.5,0
		c-0.3,0-0.5,0.1-0.7,0.3c-0.2,0.2-0.9,0.9-0.9,2.1c0,1.2,0.9,2.4,1,2.6c0.1,0.2,1.8,2.7,4.2,3.7c0.6,0.3,1.1,0.4,1.4,0.5
		c0.6,0.2,1.1,0.2,1.6,0.1c0.5-0.1,1.5-0.6,1.7-1.2c0.2-0.6,0.2-1.1,0.1-1.2C29,26.2,28.8,26.2,28.6,26.1L28.6,26.1z"/>
</g>
</svg>
